# xmcd
#
# Track frame offsets:
# 150
# 31417
# 63764
# 97257
# 125634
# 160208
# 177216
# 204079
# 209514
# 244398
# 277193
#
# Disc length: 4018 seconds
#
#
# Revision: 1
# Processed by: cddbd v1.5.1PL2 Copyright (c) Steve Scherf et al.
# Submitted via: FreeRIP 2.941 
#
DISCID=a40fb00b
DTITLE=Pierre de Bethmann - Ilium Quintet
DYEAR=2003
DGENRE=Jazz
TTITLE0=Volseau
TTITLE1=K.I.S.S.
TTITLE2=Ingerences
TTITLE3=Solune
TTITLE4=Steady
TTITLE5=La Lenteur
TTITLE6=Dia
TTITLE7=Sisyphe-1
TTITLE8=Sisyphe-2
TTITLE9=Ruptures
TTITLE10=Ilium
EXTD=
EXTT0=
EXTT1=
EXTT2=
EXTT3=
EXTT4=
EXTT5=
EXTT6=
EXTT7=
EXTT8=
EXTT9=
EXTT10=
PLAYORDER=
